<svg id="Layer_1" data-name="Layer 1" xmlns="http://www.w3.org/2000/svg" viewBox="0 0 507.8 149.21"><defs><style>.cls-1{fill:#fff;}</style></defs><path class="cls-1" d="M52.1,396V333c0-.58,0-1.15,0-1.73a2.12,2.12,0,0,1,1.09-1.91,8.6,8.6,0,0,1,.85-.45,75.33,75.33,0,0,1,19.86-6.39,74,74,0,0,1,52.85,10.67,74,74,0,0,1,32.4,45.41,70.21,70.21,0,0,1,2,21A74,74,0,0,1,146,441.1a7.79,7.79,0,0,1-.86,1,2,2,0,0,1-2.78.22,7,7,0,0,1-.85-.78c-2.64-2.63-5.25-5.29-7.92-7.9-1.43-1.4-1.43-2.41-.24-4a54.09,54.09,0,0,0,7-12.79A59.17,59.17,0,0,0,144,401.39a57.7,57.7,0,0,0-42.08-61,56,56,0,0,0-18.67-2,58.45,58.45,0,0,0-11.75,1.92,8.32,8.32,0,0,0-1.1.36,1.94,1.94,0,0,0-1.29,1.75c0,.45,0,.9,0,1.35V449.26a2,2,0,0,0,1.62,2.1c1.42.39,2.83.81,4.28,1.09a57.22,57.22,0,0,0,29.44-1.63,6.64,6.64,0,0,0,1.08-.4,1.36,1.36,0,0,0,.51-2,10.09,10.09,0,0,0-1.06-1.11l-18.8-18.81c-.36-.36-.75-.71-1.08-1.1a2.11,2.11,0,0,1,1.3-3.62,11.09,11.09,0,0,1,1.73-.11,27.74,27.74,0,0,0,5.68-54.51,26.76,26.76,0,0,0-8.77-.87,5.13,5.13,0,0,1-1,0,2.1,2.1,0,0,1-2-2,11,11,0,0,1,0-1.15v-11c-.11-1.9.63-2.73,2.72-2.86a41.45,41.45,0,0,1,7.31.3,42.07,42.07,0,0,1,15.47,4.9c12.21,6.75,20,16.89,22.85,30.58a44.29,44.29,0,0,1-13.85,42.09c-.48.43-1,.84-1.43,1.29a2,2,0,0,0-.12,2.93c.37.44.79.84,1.2,1.24l16.22,16.22c.36.37.74.72,1.07,1.11a1.42,1.42,0,0,1-.13,2.06,9.49,9.49,0,0,1-1,.86,74.38,74.38,0,0,1-78.05,8.31c-.29-.14-.58-.28-.86-.43a2.25,2.25,0,0,1-1.32-2.17c0-.58,0-1.16,0-1.74Z" transform="translate(-52.1 -321.4)"/><path class="cls-1" d="M462.53,400.37H442.1a11.28,11.28,0,0,1-1.54,0,3.51,3.51,0,0,1-3.21-3.49c-.06-1.16,0-2.31,0-3.47,0-1.35,0-2.7,0-4.05a7.39,7.39,0,0,1,1.6-4.81q10.77-14.44,21.47-28.92l3.33-4.49a6.09,6.09,0,0,0,.52-.8.56.56,0,0,0-.48-.83c-.57,0-1.15,0-1.73,0H443.14a12.4,12.4,0,0,1-2.11-.13,3.2,3.2,0,0,1-2.76-2.8,7.55,7.55,0,0,1-.09-1.34c0-2.25,0-4.5,0-6.75a8.73,8.73,0,0,1,.21-1.91,3.34,3.34,0,0,1,2.93-2.39c.52,0,1,0,1.55,0h38.35c.51,0,1,0,1.54,0a3.39,3.39,0,0,1,3.11,3.11c0,3.09,0,6.17,0,9.25a5.81,5.81,0,0,1-1.45,3.3c-2.81,3.75-5.59,7.52-8.38,11.28l-16.09,21.64c-.23.31-.46.62-.68.94-.54.79-.37,1.21.54,1.27.51,0,1,0,1.54,0H482.7a15.58,15.58,0,0,1,1.93.08,3.2,3.2,0,0,1,2.86,2.69,7.5,7.5,0,0,1,.11,1.34c0,2.38,0,4.75,0,7.13a7.49,7.49,0,0,1-.1,1.34,3.29,3.29,0,0,1-2.44,2.69,6.8,6.8,0,0,1-2.1.19Z" transform="translate(-52.1 -321.4)"/><path class="cls-1" d="M339.09,438.41c0,2.44,0,4.87,0,7.31a16.49,16.49,0,0,1-.8,5.49,9.23,9.23,0,0,1-6.23,6.06,15.2,15.2,0,0,1-9.08,0c-3.9-1.21-6-4.05-6.72-7.91a19.48,19.48,0,0,1-.37-3.82c0-5.33,0-10.66,0-16,0-.32,0-.65,0-1,.07-1.22.39-1.53,1.67-1.56a16.61,16.61,0,0,1,1.73,0,1.08,1.08,0,0,1,1.11,1.1c.05.51,0,1,0,1.54,0,5.07,0,10.14,0,15.21a15.85,15.85,0,0,0,.4,3.82,6,6,0,0,0,6.18,5c.52,0,1,0,1.54,0a5.8,5.8,0,0,0,5.37-4,13.54,13.54,0,0,0,.74-4.73c0-5.13,0-10.27,0-15.4,0-.51,0-1,0-1.54a1,1,0,0,1,1-1,22.25,22.25,0,0,1,2.31,0,1,1,0,0,1,1,1,13,13,0,0,1,.06,1.53C339.1,432.5,339.09,435.46,339.09,438.41Z" transform="translate(-52.1 -321.4)"/><path class="cls-1" d="M217.72,457.89a12.65,12.65,0,0,1-6-1.2,9.16,9.16,0,0,1-4.16-3.6,4.39,4.39,0,0,1-.48-1,1,1,0,0,1,.56-1.3,25.4,25.4,0,0,1,2.55-.85,1.06,1.06,0,0,1,1,.43,9.24,9.24,0,0,1,.53.8,4.9,4.9,0,0,0,1.54,1.43,8.71,8.71,0,0,0,8.3.28,3.77,3.77,0,0,0,2.21-3.75,3.71,3.71,0,0,0-2.38-3.62,20.51,20.51,0,0,0-3.48-1.06c-1.12-.28-2.25-.51-3.37-.8a11.24,11.24,0,0,1-3.49-1.54,6.8,6.8,0,0,1-2.92-4.15c-1.37-5.55,1.63-9.9,6.9-11.21a10.94,10.94,0,0,1,6.62.34,8.76,8.76,0,0,1,4.52,3.72,6.25,6.25,0,0,1,.45.85,1.2,1.2,0,0,1-.73,1.72,18.65,18.65,0,0,1-2.23.56,1,1,0,0,1-.88-.29,3.62,3.62,0,0,1-.59-.75c-1.26-2.18-4.65-2.85-6.86-2a4.66,4.66,0,0,0-2.89,5.45,3.69,3.69,0,0,0,1.68,2.26,9.17,9.17,0,0,0,2.83,1.15c1.55.41,3.11.77,4.66,1.17a12.09,12.09,0,0,1,3.68,1.61,6.42,6.42,0,0,1,3,5.13,10.51,10.51,0,0,1-.18,3.45,8.32,8.32,0,0,1-4.62,5.6A12.33,12.33,0,0,1,217.72,457.89Z" transform="translate(-52.1 -321.4)"/><path class="cls-1" d="M549.23,457.89a13,13,0,0,1-6.61-1.52A8.71,8.71,0,0,1,539,453a3.42,3.42,0,0,1-.43-1.05,1,1,0,0,1,.53-1.14,4.58,4.58,0,0,1,.89-.35,4.68,4.68,0,0,1,2-.48c.8.12,1,.93,1.43,1.46a6.12,6.12,0,0,0,3.78,2.13,9.58,9.58,0,0,0,5-.27,6.36,6.36,0,0,0,1.68-.91c2-1.45,2.08-5.37-.55-6.7a18,18,0,0,0-3.83-1.24c-1.18-.29-2.38-.51-3.56-.83a11.31,11.31,0,0,1-3.48-1.59,6.48,6.48,0,0,1-2.66-3.66c-1.62-5.9,1.4-10.24,6.74-11.61a10.82,10.82,0,0,1,6.63.32,8.65,8.65,0,0,1,4.8,4.21c.63,1.21.31,1.91-1,2.28a4.85,4.85,0,0,0-.57.09c-1.28.56-2.12.2-2.86-1-1.29-2.14-5.39-2.9-7.78-1.07a4.42,4.42,0,0,0-1.79,4.57,3.62,3.62,0,0,0,1.67,2.48,9.38,9.38,0,0,0,3,1.21c1.56.39,3.12.74,4.66,1.17a13.33,13.33,0,0,1,3.33,1.46,6.41,6.41,0,0,1,3.17,4.81c.7,5.14-2,9-6.88,10.26A12.52,12.52,0,0,1,549.23,457.89Z" transform="translate(-52.1 -321.4)"/><path class="cls-1" d="M94.72,396.25a8.13,8.13,0,1,1-8-8.37A8,8,0,0,1,94.72,396.25Z" transform="translate(-52.1 -321.4)"/><path class="cls-1" d="M268.83,443.84V432.49c0-1.5,0-1.51-1.43-1.52h-3.66c-.38,0-.77,0-1.15,0-1-.06-1.35-.41-1.43-1.43a6.59,6.59,0,0,1,0-.77c0-1.4.33-1.74,1.68-1.75h16.55c1.23,0,1.57.38,1.64,1.62a5.61,5.61,0,0,1,0,.58c0,1.38-.36,1.73-1.7,1.75-1.66,0-3.33,0-5,0-.89,0-.94.07-1,1,0,.45,0,.9,0,1.35V454.7c0,.52,0,1,0,1.54a1.27,1.27,0,0,1-1.13,1.15,12.62,12.62,0,0,1-2.3,0,1.25,1.25,0,0,1-1-1.21c0-.44,0-.89,0-1.34Z" transform="translate(-52.1 -321.4)"/><path class="cls-1" d="M285,359.49a7.72,7.72,0,1,1-7.8,7.58A7.71,7.71,0,0,1,285,359.49Z" transform="translate(-52.1 -321.4)"/><path class="cls-1" d="M439.56,442.31c0,4.29,0,8.58,0,12.88,0,1.95-.31,2.25-2.19,2.26-.26,0-.52,0-.77,0-1.14-.08-1.54-.51-1.6-1.71,0-.38,0-.77,0-1.15v-24.8c0-.51,0-1,0-1.54a1.18,1.18,0,0,1,1.23-1.2,18.57,18.57,0,0,1,2.11,0c.75,0,1.12.44,1.19,1.24,0,.44,0,.89,0,1.34Z" transform="translate(-52.1 -321.4)"/><path class="cls-1" d="M263.81,355.91a28.18,28.18,0,0,0-16.15-18.51,35.75,35.75,0,0,0-14.15-3.23c-7.58-.14-15.16-.07-22.74-.1l-.58,0a3.26,3.26,0,0,0-3.11,3.08c-.05.58,0,1.16,0,1.74v56.46c0,.58,0,1.16,0,1.74a3.32,3.32,0,0,0,2.47,3.07,5.91,5.91,0,0,0,1.91.18h15.61c2.5,0,5-.05,7.51-.24a40.81,40.81,0,0,0,10.15-2c9.47-3.28,16-9.59,19-19.22A39.18,39.18,0,0,0,263.81,355.91Zm-15.62,17.46c-1.69,5.36-5.41,8.73-10.67,10.46a23.9,23.9,0,0,1-6.82,1.05c-1.73.05-3.46,0-5.2,0a5.16,5.16,0,0,1-1-.06,1.35,1.35,0,0,1-1.2-1.3c0-.51,0-1,0-1.54V367.17c0-5.07,0-10.14,0-15.21,0-2.44.58-2.59,2.52-2.55,2.25,0,4.49,0,6.74.11a18.13,18.13,0,0,1,7.21,1.83,15.44,15.44,0,0,1,8.84,11.18A20.57,20.57,0,0,1,248.19,373.37Z" transform="translate(-52.1 -321.4)"/><path class="cls-1" d="M357.53,397a7.52,7.52,0,0,0-.63-1.39l-5.43-10-6.07-11.14c.66-.44,1.2-.78,1.72-1.14A19.15,19.15,0,0,0,355,362.1a25,25,0,0,0-2-16.48,20.45,20.45,0,0,0-12-9.94,33.56,33.56,0,0,0-11.17-1.61c-6.87,0-13.74,0-20.62,0-.45,0-.9,0-1.34,0a3.36,3.36,0,0,0-3.27,3.35c0,.45,0,.9,0,1.35v56.83c0,.45,0,.9,0,1.35a3.31,3.31,0,0,0,2.73,3.26,6.56,6.56,0,0,0,1.53.14c2.57,0,5.13,0,7.7,0,3.09,0,4.28-1.22,4.29-4.34,0-5,0-10,0-15,0-.45,0-.9,0-1.35a1.46,1.46,0,0,1,1.3-1.44,8.85,8.85,0,0,1,1.15-.05c1.74,0,3.47,0,5.2,0,3-.08,2.68.46,3.53,2.14,2.84,5.67,5.7,11.34,8.5,17a4.92,4.92,0,0,0,4.88,3.05c2.95,0,5.91,0,8.86,0a4.61,4.61,0,0,0,1.52-.16A2.5,2.5,0,0,0,357.53,397Zm-19.29-36.42a7.24,7.24,0,0,1-5.57,3.63,19.23,19.23,0,0,1-3.64.29c-1.79,0-3.58,0-5.38,0-.38,0-.77,0-1.15,0-1.14-.1-1.59-.57-1.63-1.71,0-.7,0-1.41,0-2.12v-9a5.51,5.51,0,0,1,.07-1.15,1.18,1.18,0,0,1,1-1,8.86,8.86,0,0,1,1.15-.06c2.37,0,4.74,0,7.11,0A11.87,11.87,0,0,1,334,350,7.44,7.44,0,0,1,338.24,360.59Z" transform="translate(-52.1 -321.4)"/><path class="cls-1" d="M559.76,397c-.12-.43-.31-.84-.46-1.27l-18.37-51.21c-.89-2.47-1.79-4.94-2.67-7.41a4.36,4.36,0,0,0-2.55-2.72,5.7,5.7,0,0,0-2.28-.26H521.68c-.39,0-.77,0-1.16,0a4,4,0,0,0-3.36,2.24,9.53,9.53,0,0,0-.55,1.44L497.43,391c-.7,1.93-1.43,3.85-2.07,5.8a2.62,2.62,0,0,0,2.32,3.6h.38c3.28,0,6.56.06,9.83,0a4.31,4.31,0,0,0,4.33-3.19c.1-.31.18-.61.28-.92q1-3.12,1.93-6.24c.61-1.95.68-2,2.67-2q10.41,0,20.82,0c2.06,0,2.11,0,2.71,2,.75,2.38,1.51,4.76,2.24,7.15a4.44,4.44,0,0,0,4.27,3.28c.32,0,.64,0,1,0h8.29a6.62,6.62,0,0,0,1.34-.08A2.54,2.54,0,0,0,559.76,397ZM534.6,375.62c-.38,0-.77,0-1.15,0H521.7c-.39,0-.77,0-1.16,0-1-.08-1.38-.51-1.07-1.53.84-2.75,1.73-5.49,2.59-8.25q2.15-6.87,4.28-13.75a7.6,7.6,0,0,1,.58-1.41.74.74,0,0,1,1.16,0,4.15,4.15,0,0,1,.6,1.4q2.88,9.17,5.77,18.33c.4,1.28.82,2.56,1.18,3.85C535.88,375.13,535.55,375.54,534.6,375.62Z" transform="translate(-52.1 -321.4)"/><path class="cls-1" d="M429.77,397.23c-.13-.49-.33-1-.51-1.45q-4.67-13-9.34-26.06-5.78-16.1-11.56-32.2c-.94-2.61-2.1-3.42-4.88-3.44-2,0-4,0-6,0H391a4.15,4.15,0,0,0-4.05,2.7c-.21.47-.34,1-.52,1.45q-4.72,13.11-9.46,26.22-5.64,15.65-11.29,31.28a8.2,8.2,0,0,0-.46,1.66,2.43,2.43,0,0,0,1.82,2.79,4.52,4.52,0,0,0,1.32.18c3.09,0,6.17,0,9.25,0,2.52,0,3.89-1.08,4.68-3.5.71-2.19,1.44-4.38,2.07-6.6s.89-2.3,3.05-2.3h21.2a1.55,1.55,0,0,1,1.81,1.32,10.06,10.06,0,0,0,.35,1.1c.68,2.21,1.34,4.42,2.06,6.61a4.38,4.38,0,0,0,4.41,3.35c3.21.06,6.43,0,9.64,0a3.79,3.79,0,0,0,1.67-.38A2.46,2.46,0,0,0,429.77,397.23ZM404,375.65c-2.19,0-4.37,0-6.55,0h-5.78a12.17,12.17,0,0,1-1.35,0c-.79-.08-1.07-.52-.89-1.35.07-.31.17-.62.26-.92q3.33-10.63,6.64-21.27a3.91,3.91,0,0,1,.58-1.42.73.73,0,0,1,1.16,0,8.46,8.46,0,0,1,.65,1.58c1.32,4.15,2.61,8.31,3.92,12.46.94,3,1.85,6,2.85,9C405.92,375.08,405.62,375.68,404,375.65Z" transform="translate(-52.1 -321.4)"/><path class="cls-1" d="M504.09,435.18a14.15,14.15,0,0,0-8.9-7.95,15.92,15.92,0,0,0-7.39-.61,14.49,14.49,0,0,0-10.24,6.12,16.31,16.31,0,0,0-2.25,14.13A14.9,14.9,0,0,0,490.17,458c6.14-.15,10.9-2.71,13.68-8.28A16.36,16.36,0,0,0,504.09,435.18Zm-3.63,11c-1.62,5-5.82,7.77-8.39,7.66-6.65-.16-10-2.33-11.8-6.57a12.4,12.4,0,0,1,.58-11.3,10.7,10.7,0,0,1,11.1-5.21,10.91,10.91,0,0,1,9,9.71A13.6,13.6,0,0,1,500.46,446.15Z" transform="translate(-52.1 -321.4)"/><path class="cls-1" d="M399,436.57a13.15,13.15,0,0,0-7.78-8.29,15.38,15.38,0,0,0-5.79-1.24c-2.57,0-5.14,0-7.71,0-2.25,0-2.37.12-2.38,2.41v25.23c0,.45,0,.91,0,1.35a1.37,1.37,0,0,0,1.48,1.43,5.61,5.61,0,0,0,.58,0c2.31,0,4.62,0,6.93,0a19.28,19.28,0,0,0,5.13-.75,13.43,13.43,0,0,0,9.7-9.52A17.36,17.36,0,0,0,399,436.57Zm-4.12,9.32a9.7,9.7,0,0,1-7,7,11.29,11.29,0,0,1-3.42.45c-1,0-1.93,0-2.89,0-1.93,0-1.69.14-1.7-1.8s0-3.86,0-5.78V432.82c0-.45,0-.9,0-1.35a.46.46,0,0,1,.49-.47,25.11,25.11,0,0,1,7.09.42c5.3,1.33,7.18,4.89,7.75,8.55A13.63,13.63,0,0,1,394.87,445.89Z" transform="translate(-52.1 -321.4)"/></svg>